<svg xmlns="http://www.w3.org/2000/svg" xmlns:xlink="http://www.w3.org/1999/xlink" version="1.1" id="Layer_1" x="0px" y="0px" viewBox="0 0 130 42" enable-background="new 0 0 130 42" xml:space="preserve">
  <g>
    <path fill="#FFFFFF" d="M81.8 0C57.3 0 37.4 19.9 37.4 44.5h3.3c0-22.7 18.5-41.2 41.2-41.2 22.7 0 41.2 18.5 41.2 41.2h3.3C126.3 19.9 106.3 0 81.8 0z"/>
    <path fill="#FFFFFF" d="M81.8 6C60.6 6 43.4 23.3 43.4 44.5h3.3c0-19.4 15.8-35.2 35.2-35.2S117 25.1 117 44.5h3.3C120.2 23.3 103 6 81.8 6z"/>
    <path fill="#FFFFFF" d="M81.8 12.1c-17.9 0-32.4 14.5-32.4 32.4h3.3c0-16.1 13.1-29.1 29.1-29.1 16.1 0 29.1 13.1 29.1 29.1h3.3C114.2 26.6 99.7 12.1 81.8 12.1z"/>
    <path fill="#FFFFFF" d="M81.8 18.1c-14.5 0-26.3 11.8-26.3 26.3h3.3c0-12.7 10.4-23.1 23.1-23.1 12.7 0 23.1 10.4 23.1 23.1h3.3C108.2 29.9 96.3 18.1 81.8 18.1z"/>
    <path fill="#FFFFFF" d="M81.8 24.2c-11.2 0-20.3 9.1-20.3 20.3h3.3c0-9.4 7.6-17 17-17s17 7.6 17 17h3.3C102.1 33.3 93 24.2 81.8 24.2z"/>
  </g>
  <g>
    <path fill="#FFFFFF" d="M32.4 12.1C14.5 12.1 0 26.6 0 44.5h3.3c0-16.1 13.1-29.1 29.1-29.1 4.8 0 9.3 1.2 13.3 3.2 0.6-0.9 1.3-1.8 2-2.6C43.2 13.5 37.9 12.1 32.4 12.1z"/>
    <path fill="#FFFFFF" d="M6 44.5h3.3c0-12.7 10.4-23.1 23.1-23.1 3.6 0 7.1 0.8 10.1 2.3 0.5-1 1.1-1.9 1.6-2.8-3.5-1.8-7.5-2.8-11.7-2.8C17.9 18.1 6 29.9 6 44.5z"/>
    <path fill="#FFFFFF" d="M12.1 44.5h3.3c0-9.4 7.6-17 17-17 2.8 0 5.4 0.7 7.7 1.8 0.4-1 0.8-2 1.2-3-2.7-1.3-5.7-2.1-8.9-2.1C21.2 24.2 12.1 33.3 12.1 44.5z"/>
    <path fill="#FFFFFF" d="M18.1 44.5h3.3c0-6.1 4.9-11 11-11 2.2 0 4.2 0.6 5.9 1.7 0.2-1.1 0.5-2.2 0.8-3.3-2-1.1-4.3-1.7-6.8-1.7C24.5 30.2 18.1 36.6 18.1 44.5z"/>
    <path fill="#FFFFFF" d="M24.2 44.5h3.3c0-2.7 2.2-5 5-5s5 2.2 5 5v0c0-2.1 0.1-4.2 0.4-6.2-1.4-1.3-3.3-2-5.4-2C27.9 36.2 24.2 39.9 24.2 44.5z"/>
  </g>
</svg>
